<?xml version="1.0" standalone="no"?><!DOCTYPE svg PUBLIC "-//W3C//DTD SVG 1.1//EN" "http://www.w3.org/Graphics/SVG/1.1/DTD/svg11.dtd"><svg t="1575430425649" class="icon" viewBox="0 0 1024 1024" version="1.1" xmlns="http://www.w3.org/2000/svg" p-id="3086" xmlns:xlink="http://www.w3.org/1999/xlink" width="200" height="200"><defs><style type="text/css"></style></defs><path d="M948.032 876.672c0 44.16-36.864 81.024-81.024 81.024H218.688c-44.16 0-81.024-36.8-81.024-81.024V228.352c0-44.16 36.864-81.024 73.664-81.024 7.36 44.16 44.16 73.664 88.384 73.664h486.272c44.16 0 81.024-36.8 88.32-73.6 44.288 7.296 73.728 36.8 73.728 80.96v648.32zM284.992 88.32c0-7.36 7.36-14.72 14.72-14.72h486.272c7.36 0 14.72 7.36 14.72 14.72v44.16c0 7.424-7.36 14.784-14.72 14.784H299.712c-7.36 7.36-14.72 0-14.72-7.36v-51.584z m589.376-14.72C867.008 29.504 830.208 0 785.92 0H299.712c-44.16 0-81.024 29.44-88.32 73.664C130.24 81.024 64 147.328 64 228.352v640.96C64 957.696 137.664 1024 218.688 1024h640.96c88.32 0 154.688-73.664 154.688-154.688V228.352c7.36-81.024-58.88-147.328-139.968-154.688z m-530.432 677.76l7.36-51.584 36.864 36.864-44.16 14.72z m206.272-302.08l95.808 95.808-176.832 176.832-95.744-95.808 176.768-176.768z m58.944-58.88c29.44-29.44 73.664-29.44 103.104-7.36 14.72 14.72 14.72 29.44 14.72 44.16 0 22.144-7.296 44.16-22.08 58.944l-7.36 7.36-29.44-36.8L609.152 390.4z m125.248-29.44l29.44-29.504c-51.584-51.584-147.328-51.584-206.272 7.36l-36.8 29.44-221.056 228.416c0 7.36-7.36 7.36-7.36 14.72l-22.08 169.408c0 14.72 0 22.144 7.36 29.44 7.36 7.424 14.72 7.424 29.44 7.424h7.424l162.048-7.36c7.36 0 7.36 0 14.72-7.36l257.856-257.856c29.44-29.44 44.16-66.304 44.16-110.528 0-36.8-14.72-73.6-36.8-95.744l-22.08 22.08z" p-id="3087"></path></svg>