<?xml version="1.0" standalone="no"?><!DOCTYPE svg PUBLIC "-//W3C//DTD SVG 1.1//EN" "http://www.w3.org/Graphics/SVG/1.1/DTD/svg11.dtd"><svg t="1575430391439" class="icon" viewBox="0 0 1024 1024" version="1.1" xmlns="http://www.w3.org/2000/svg" p-id="2621" xmlns:xlink="http://www.w3.org/1999/xlink" width="200" height="200"><defs><style type="text/css"></style></defs><path d="M994.496 607.488h-128v-22.208c0-12.544-0.64-24.896-1.92-37.12h129.92a29.568 29.568 0 0 1 0 59.328z m-211.328-249.536a355.968 355.968 0 0 0-42.24-42.176l94.656-94.912a29.76 29.76 0 0 1 42.112 0 29.952 29.952 0 0 1 0 42.24l-94.528 94.848z m24.32 585.408h68.864a29.568 29.568 0 0 1 0 59.328H147.776a29.568 29.568 0 0 1 0-59.328h68.928V587.712A295.872 295.872 0 0 1 512.064 291.392a295.872 295.872 0 0 1 295.36 296.32v355.648z m-59.136-335.872A236.672 236.672 0 0 0 512.064 370.368a236.736 236.736 0 0 0-236.288 237.12v335.872h472.576V607.488z m-231.04-126.272a29.44 29.44 0 0 1 41.792 0c11.52 11.584 11.52 30.4 0 41.92L494.912 587.584h106.048a29.568 29.568 0 0 1 27.2 41.28 30.592 30.592 0 0 1-7.232 30.912l-115.84 116.224a30.592 30.592 0 0 1-43.456 0 30.848 30.848 0 0 1 0-43.584l85.248-85.568H443.456a28.736 28.736 0 0 1-13.696-3.84 28.992 28.992 0 0 1-23.808-8.064 29.696 29.696 0 0 1 0-41.92l111.36-111.808z m-34.496-247.68V93.632a29.568 29.568 0 1 1 59.072 0V233.6A358.464 358.464 0 0 0 512.064 232.064c-9.856 0-19.584 0.64-29.248 1.472zM245.824 352.64L150.016 256.576a29.696 29.696 0 0 1 0-41.92 29.44 29.44 0 0 1 41.792 0l96.512 96.832c-15.36 12.48-29.44 26.368-42.496 41.216zM157.632 585.344v22.208h-128a29.568 29.568 0 0 1 0-59.264h129.92c-1.28 12.16-1.92 24.512-1.92 37.056z" p-id="2622"></path></svg>