<?xml version="1.0" standalone="no"?><!DOCTYPE svg PUBLIC "-//W3C//DTD SVG 1.1//EN" "http://www.w3.org/Graphics/SVG/1.1/DTD/svg11.dtd"><svg t="1575430373601" class="icon" viewBox="0 0 1024 1024" version="1.1" xmlns="http://www.w3.org/2000/svg" p-id="2387" xmlns:xlink="http://www.w3.org/1999/xlink" width="200" height="200"><defs><style type="text/css"></style></defs><path d="M810.73152 946.21696a38.4 38.4 0 0 1 1.24416 76.77952l-1.24416 0.02048H297.94304a38.4 38.4 0 0 1-1.23904-76.77952l1.23904-0.02048h512.78848zM937.94304 0c33.93536 0 61.44 27.50976 61.44 61.44v664.81152c0 33.93536-27.50464 61.44-61.44 61.44H84.48c-33.93024 0-61.44-27.50464-61.44-61.44V61.44c0-33.93024 27.50976-61.44 61.44-61.44h853.46304z m-15.36 76.8H99.84v634.09152h822.74304V76.8zM252.65152 173.1584a43.52 43.52 0 0 1 43.49952 42.21952l0.02048 1.3056v354.32448a43.52 43.52 0 0 1-87.01952 1.3056l-0.02048-1.3056V216.68352a43.52 43.52 0 0 1 43.52-43.52z m344.74496 0a43.52 43.52 0 0 1 43.50464 42.21952l0.01536 1.3056v354.32448a43.52 43.52 0 0 1-87.01952 1.3056l-0.02048-1.3056V216.68352a43.52 43.52 0 0 1 43.52-43.52zM425.02656 291.97312a43.52 43.52 0 0 1 43.49952 42.2144l0.02048 1.3056v231.4496a43.52 43.52 0 0 1-87.01952 1.3056l-0.02048-1.3056V335.488a43.52 43.52 0 0 1 43.52-43.52z m344.74496 0a43.52 43.52 0 0 1 43.52 43.52v231.4496a43.52 43.52 0 1 1-87.04 0V335.488a43.52 43.52 0 0 1 43.52-43.52z" p-id="2388"></path></svg>