<?xml version="1.0" standalone="no"?><!DOCTYPE svg PUBLIC "-//W3C//DTD SVG 1.1//EN" "http://www.w3.org/Graphics/SVG/1.1/DTD/svg11.dtd"><svg t="1575430383868" class="icon" viewBox="0 0 1024 1024" version="1.1" xmlns="http://www.w3.org/2000/svg" p-id="2501" xmlns:xlink="http://www.w3.org/1999/xlink" width="200" height="200"><defs><style type="text/css"></style></defs><path d="M942 37H82C36.8 37 0 73.8 0 119v786c0 45.2 36.8 82 82 82h860c45.2 0 82-36.8 82-82V119c0-45.2-36.8-82-82-82zM82 79h860c22 0 40 18 40 40v320.8L830.4 288.1c-8.2-8.2-21.4-8.2-29.6-0.1L436.7 646.4 295.8 454.3c-3.5-4.7-8.7-7.8-14.5-8.4-5.8-0.7-11.6 1.1-16.1 4.9L42 641.2V119c0-22 18-40 40-40z m900 826c0 22-18 40-40 40H82c-22 0-40-18-40-40V742.6h940V905zM42 722.6v-26.2l233.3-199 141.9 193.5c3.6 4.9 9.2 8 15.3 8.5 6.1 0.5 12.1-1.7 16.4-6l366.5-360.8 164.7 164.8c0.6 0.6 1.2 1.1 1.9 1.6v223.6H42z" p-id="2502"></path><path d="M268.2 333.6c41.3 0 74.9-33.6 74.9-74.9 0-41.3-33.6-74.9-74.9-74.9-41.3 0-74.9 33.6-74.9 74.9 0 41.3 33.6 74.9 74.9 74.9z m0-107.8c18.1 0 32.9 14.8 32.9 32.9s-14.8 32.9-32.9 32.9-32.9-14.8-32.9-32.9 14.7-32.9 32.9-32.9zM347.6 744.6h20V941h-20zM669.6 744.6h20V941h-20zM104.7 922.5c2.4 0 4.8-0.8 6.7-2.5l42.5-38 24.5 35c1.7 2.4 4.4 4 7.4 4.2 3 0.2 5.9-0.9 8-3l68.7-70.9 28.6 29.9c3.8 4 10.1 4.1 14.1 0.3s4.1-10.1 0.3-14.1l-35.7-37.5c-1.9-2-4.5-3.1-7.2-3.1s-5.3 1.1-7.2 3l-67.5 69.6-24-34.3c-1.6-2.3-4.2-3.9-7-4.2-2.8-0.3-5.7 0.6-7.8 2.5l-51 45.6c-4.1 3.7-4.5 10-0.8 14.1 1.9 2.2 4.7 3.4 7.4 3.4z" p-id="2503"></path><path d="M134.7 801.3m-30 0a30 30 0 1 0 60 0 30 30 0 1 0-60 0Z" p-id="2504"></path><path d="M452.7 801.3m-30 0a30 30 0 1 0 60 0 30 30 0 1 0-60 0Z" p-id="2505"></path><path d="M422.7 922.5c2.4 0 4.8-0.8 6.7-2.5l42.5-38 24.5 35c1.7 2.4 4.4 4 7.4 4.2 3 0.2 5.9-0.9 8-3l68.7-70.9 28.6 29.9c3.8 4 10.1 4.1 14.1 0.3s4.1-10.1 0.3-14.1l-35.7-37.5c-1.9-2-4.5-3.1-7.2-3.1s-5.3 1.1-7.2 3l-67.5 69.6-24-34.3c-1.6-2.3-4.2-3.9-7-4.2-2.8-0.3-5.7 0.6-7.8 2.5l-51 45.6c-4.1 3.7-4.5 10-0.8 14.1 1.9 2.2 4.7 3.4 7.4 3.4z" p-id="2506"></path><path d="M776.7 801.3m-30 0a30 30 0 1 0 60 0 30 30 0 1 0-60 0Z" p-id="2507"></path><path d="M746.7 922.5c2.4 0 4.8-0.8 6.7-2.5l42.5-38 24.5 35c1.7 2.4 4.4 4 7.4 4.2 3 0.2 5.9-0.9 8-3l68.7-70.9 28.6 29.9c3.8 4 10.1 4.1 14.1 0.3s4.1-10.1 0.3-14.1l-35.7-37.5c-1.9-2-4.5-3.1-7.2-3.1s-5.3 1.1-7.2 3l-67.5 69.6-24-34.3c-1.6-2.3-4.2-3.9-7-4.2-2.8-0.3-5.7 0.6-7.8 2.5l-51 45.6c-4.1 3.7-4.5 10-0.8 14.1 1.9 2.2 4.7 3.4 7.4 3.4z" p-id="2508"></path></svg>