<?xml version="1.0" standalone="no"?><!DOCTYPE svg PUBLIC "-//W3C//DTD SVG 1.1//EN" "http://www.w3.org/Graphics/SVG/1.1/DTD/svg11.dtd"><svg t="1575430415791" class="icon" viewBox="0 0 1024 1024" version="1.1" xmlns="http://www.w3.org/2000/svg" p-id="2972" xmlns:xlink="http://www.w3.org/1999/xlink" width="200" height="200"><defs><style type="text/css"></style></defs><path d="M929.84513 211.904139l-373.278773-201.656349a104.528783 104.528783 0 0 0-89.136397-0.536321l-373.815094 202.19267A89.887245 89.887245 0 0 0 49.422091 283.449237v457.373762a89.833613 89.833613 0 0 0 46.069895 70.472458l373.546934 201.656349a102.490767 102.490767 0 0 0 88.117389 2.091649l372.956981-200.369181a91.174413 91.174413 0 0 0 44.621831-72.081419V284.360981a91.817997 91.817997 0 0 0-44.836359-72.295946z m-32.179204 487.461318a76.103819 76.103819 0 0 1-37.006086 60.014217l-311.065644 172.855961a85.113996 85.113996 0 0 1-73.422219-1.930753l-311.065645-173.928601a75.084811 75.084811 0 0 1-38.400518-58.619784l-0.26816-375.638582a75.084811 75.084811 0 0 1 36.898822-59.692425l311.655597-166.259224a87.527437 87.527437 0 0 1 74.01217 0.429056l311.065645 166.259224a76.371979 76.371979 0 0 1 37.542406 60.282377v376.282166z m-239.788707-145.610901a28.907652 28.907652 0 0 0 25.36794-8.098433 31.589253 31.589253 0 0 0 9.010177-25.90426 32.179205 32.179205 0 0 0-8.795649-26.386948 29.443972 29.443972 0 0 0-25.582468-8.527489h-74.012171l72.885899-157.892631a59.531529 59.531529 0 0 0 9.439233-28.3177 24.617092 24.617092 0 0 0-13.783426-20.487427 46.338055 46.338055 0 0 0-26.172419-8.688385 35.236229 35.236229 0 0 0-26.226052 21.774595l-88.492813 185.674011L422.861761 291.225878a33.627269 33.627269 0 0 0-26.816004-20.916483 41.13575 41.13575 0 0 0-26.172419 8.688385 24.509828 24.509828 0 0 0-11.262722 20.970115 55.83092 55.83092 0 0 0 7.776641 26.816004L439.273156 484.837426h-75.084811a35.289861 35.289861 0 0 0-24.670724 7.454849 34.753541 34.753541 0 0 0-8.205697 26.816004 32.179205 32.179205 0 0 0 9.010177 26.118788 29.336708 29.336708 0 0 0 25.582468 8.527489h109.302032v54.75828h-111.018256a35.665285 35.665285 0 0 0-24.670724 7.347585 35.182597 35.182597 0 0 0-8.259329 26.816004 32.179205 32.179205 0 0 0 9.063809 26.333316 29.175812 29.175812 0 0 0 25.582468 8.473857h108.98024v88.171021a56.36724 56.36724 0 0 0 7.240321 33.090948 34.592645 34.592645 0 0 0 28.800388 9.546498 33.144581 33.144581 0 0 0 28.3177-9.546498 58.995209 58.995209 0 0 0 6.918529-33.090948v-88.171021h111.018256a28.746756 28.746756 0 0 0 25.314308-8.098433 31.321093 31.321093 0 0 0 9.010177-25.90426 31.803781 31.803781 0 0 0-8.795649-26.279684 29.39034 29.39034 0 0 0-25.528836-8.527489h-111.018256v-54.919176z" p-id="2973"></path></svg>